<svg width="192" height="49" fill="none" xmlns="http://www.w3.org/2000/svg"><path d="M67.592 29.488c-.576.224-1.024.336-1.344.336-.96 0-1.496-.136-1.608-.408-1.6-4.112-2.656-6.76-3.168-7.944-.048.432-.176 1.432-.384 3-.432 3.072-.648 5.624-.648 7.656 0 .496.032 1.16.096 1.992-1.12 0-1.88-.128-2.28-.384-.384-.272-.576-.648-.576-1.128 0-.16.264-2.336.792-6.528.544-4.192.816-7.112.816-8.76v-.12c-.464-.752-.952-1.368-1.464-1.848.592-.416 1.304-.624 2.136-.624 1.056 0 1.872.496 2.448 1.488.576.976 1.704 3.672 3.384 8.088l1.104 2.832c.096-.16.24-.376.432-.648 3.904-5.776 5.912-9.696 6.024-11.76 0 .016.192.04.576.072a4.47 4.47 0 011.224.24c.448.128.768.336.96.624.208.272.336.544.384.816.048.256.072.704.072 1.344 0 .624-.264 2.744-.792 6.36s-.792 6.152-.792 7.608c0 1.44.112 2.424.336 2.952-1.36-.352-2.288-.816-2.784-1.392-.496-.592-.744-1.408-.744-2.448 0-.608.16-2.104.48-4.488.336-2.384.568-4.288.696-5.712a206.79 206.79 0 01-2.736 4.536c-1.168 1.92-1.872 3.064-2.112 3.432-.24.352-.416.624-.528.816zm15.114-.024c0 .752.136 1.368.408 1.848.288.464.688.696 1.2.696.752 0 1.464-.44 2.136-1.32.688-.88 1.232-2.008 1.632-3.384.416-1.376.624-2.68.624-3.912 0-1.248-.048-2.256-.144-3.024.48-.032.816-.048 1.008-.048.816 0 1.432.152 1.848.456.416.304.624.848.624 1.632 0 .304-.192 1.544-.576 3.72-.384 2.16-.576 3.896-.576 5.208 0 1.296.248 2.448.744 3.456-1.2-.208-2.08-.648-2.64-1.32-.56-.688-.84-1.672-.84-2.952 0-.224.032-.656.096-1.296-.432 1.52-1.2 2.744-2.304 3.672-1.104.928-2.192 1.392-3.264 1.392-1.056 0-1.912-.392-2.568-1.176-.64-.8-.96-1.928-.96-3.384s.256-2.864.768-4.224c.528-1.376 1.312-2.536 2.352-3.48 1.04-.96 2.2-1.44 3.48-1.44.736 0 1.488.176 2.256.528-1.616.576-2.904 1.712-3.864 3.408-.96 1.68-1.44 3.328-1.44 4.944zM98.685 26.2c.576-2.08 1.264-3.608 2.064-4.584.816-.992 1.568-1.488 2.256-1.488.704 0 1.232.264 1.584.792.352.512.528 1.184.528 2.016 0 .816-.248 1.568-.744 2.256-.48.688-1.144 1.032-1.992 1.032-.224 0-.488-.064-.792-.192.496-.624.744-1.376.744-2.256 0-.512-.208-.768-.624-.768-.304 0-.632.216-.984.648-.352.416-.688 1-1.008 1.752-.32.736-.592 1.688-.816 2.856a20.801 20.801 0 00-.312 3.696c0 .16.04.84.12 2.04-.512.032-.84.048-.984.048-.912 0-1.568-.16-1.968-.48-.4-.32-.6-.848-.6-1.584 0-.32.168-1.552.504-3.696.336-2.144.504-3.848.504-5.112 0-1.28-.136-2.456-.408-3.528 1.168.368 1.984.896 2.448 1.584.464.672.696 1.464.696 2.376 0 .896-.072 1.76-.216 2.592zm14.805-5.808c.304 0 .536.016.696.048.416.08.64.376.672.888-1.744.368-3.136 1.312-4.176 2.832-1.024 1.52-1.536 3.104-1.536 4.752 0 1.92.584 2.88 1.752 2.88.704 0 1.336-.384 1.896-1.152.992-1.392 1.688-3.568 2.088-6.528.304-2.336.872-3.84 1.704-4.512.4-.336.896-.6 1.488-.792-.224 1.696-.336 2.976-.336 3.84 0 6.4-.688 11.208-2.064 14.424-1.36 3.216-3.584 4.824-6.672 4.824-1.248 0-2.224-.336-2.928-1.008-.704-.656-1.056-1.384-1.056-2.184 0-.784.248-1.432.744-1.944.496-.496 1.192-.744 2.088-.744.368 0 .744.08 1.128.24-.608.4-.912 1.016-.912 1.848 0 .56.168 1.04.504 1.44.336.416.744.624 1.224.624.496 0 .928-.104 1.296-.312.368-.192.744-.544 1.128-1.056.384-.512.72-1.152 1.008-1.92.656-1.776 1.016-4.2 1.08-7.272-.464 1.376-1.168 2.48-2.112 3.312-.944.832-1.904 1.248-2.88 1.248-1.232 0-2.176-.464-2.832-1.392-.64-.944-.96-2.144-.96-3.6 0-1.696.408-3.272 1.224-4.728.912-1.68 2.176-2.848 3.792-3.504.896-.368 1.88-.552 2.952-.552zm10.947 6.192c.528-1.808 1.352-3.328 2.472-4.56 1.12-1.248 2.16-1.872 3.12-1.872.976 0 1.664.296 2.064.888.416.576.624 1.368.624 2.376 0 .992-.16 2.392-.48 4.2-.304 1.808-.456 3.128-.456 3.96 0 .816.104 1.416.312 1.8.208.368.56.688 1.056.96-.208.016-.504.024-.888.024-1.344 0-2.304-.208-2.88-.624-.56-.416-.84-1.144-.84-2.184 0-.592.16-1.744.48-3.456.32-1.728.48-3.016.48-3.864 0-1.056-.32-1.584-.96-1.584-.384 0-.808.216-1.272.648-.464.432-.912 1.024-1.344 1.776-.416.736-.768 1.688-1.056 2.856a14.589 14.589 0 00-.432 3.504c0 1.152.048 2.008.144 2.568a20.77 20.77 0 01-1.008.048c-.912 0-1.568-.152-1.968-.456-.4-.32-.6-.824-.6-1.512 0-.688.136-2 .408-3.936.864-5.952 1.296-10.472 1.296-13.56 0-1.392-.096-2.328-.288-2.808 1.2.32 2.016.808 2.448 1.464.448.64.672 1.552.672 2.736 0 .8-.16 2.48-.48 5.04-.304 2.56-.512 4.416-.624 5.568zm16.899 1.512c-.768 0-1.52-.088-2.256-.264-.016.16-.024.408-.024.744 0 1.328.248 2.328.744 3 .496.672 1.088 1.008 1.776 1.008s1.344-.208 1.968-.624c.624-.416 1.168-.992 1.632-1.728.576.128.864.424.864.888-1.408 2.16-3.224 3.24-5.448 3.24-1.344 0-2.52-.512-3.528-1.536-1.008-1.04-1.512-2.48-1.512-4.32 0-1.376.264-2.68.792-3.912.528-1.248 1.368-2.296 2.52-3.144 1.152-.864 2.424-1.296 3.816-1.296 1.408 0 2.44.32 3.096.96.656.64.984 1.48.984 2.52 0 1.504-.528 2.624-1.584 3.36-1.04.736-2.32 1.104-3.84 1.104zm1.008-6.456c-.816 0-1.504.504-2.064 1.512s-.928 2.232-1.104 3.672h.36c1.392 0 2.416-.36 3.072-1.08.672-.72 1.008-1.584 1.008-2.592 0-.416-.112-.768-.336-1.056-.208-.304-.52-.456-.936-.456zm10.645 4.56c.576-2.08 1.264-3.608 2.064-4.584.816-.992 1.568-1.488 2.256-1.488.704 0 1.232.264 1.584.792.352.512.528 1.184.528 2.016 0 .816-.248 1.568-.744 2.256-.48.688-1.144 1.032-1.992 1.032-.224 0-.488-.064-.792-.192.496-.624.744-1.376.744-2.256 0-.512-.208-.768-.624-.768-.304 0-.632.216-.984.648-.352.416-.688 1-1.008 1.752-.32.736-.592 1.688-.816 2.856a20.801 20.801 0 00-.312 3.696c0 .16.04.84.12 2.04-.512.032-.84.048-.984.048-.912 0-1.568-.16-1.968-.48-.4-.32-.6-.848-.6-1.584 0-.32.168-1.552.504-3.696.336-2.144.504-3.848.504-5.112 0-1.28-.136-2.456-.408-3.528 1.168.368 1.984.896 2.448 1.584.464.672.696 1.464.696 2.376 0 .896-.072 1.76-.216 2.592zm7.99 3.864c0-.672.128-1.888.384-3.648.256-1.76.384-3.128.384-4.104s-.048-1.728-.144-2.256c.352-.032.68-.048.984-.048.928 0 1.568.16 1.92.48.368.304.552.832.552 1.584 0 .24-.2 1.504-.6 3.792-.384 2.272-.584 4.152-.6 5.64 0 1.472.096 2.424.288 2.856-1.248-.32-2.088-.8-2.52-1.44-.432-.656-.648-1.608-.648-2.856zm3.264-12.072c-1.648 0-2.472-.576-2.472-1.728 0-.416.12-.984.36-1.704.448-.064.84-.096 1.176-.096 1.648 0 2.472.576 2.472 1.728 0 .416-.12.984-.36 1.704-.448.064-.84.096-1.176.096zm8.479 7.728a80.724 80.724 0 00-.6 3.792 26.14 26.14 0 00-.216 3.384c0 1.152.112 1.976.336 2.472-1.232-.32-2.08-.808-2.544-1.464-.464-.672-.696-1.616-.696-2.832 0-1.072.168-2.536.504-4.392.336-1.872.552-3.136.648-3.792-.832.144-1.72.424-2.664.84a9.582 9.582 0 01-.048-.792c0-.848.256-1.424.768-1.728.512-.32 1.248-.488 2.208-.504.112-1.2.168-2.064.168-2.592s-.008-.968-.024-1.32V16c1.056.112 1.824.432 2.304.96.48.512.72 1.248.72 2.208 0 .384-.04.92-.12 1.608 1.344-.032 2.328-.296 2.952-.792.032.32.048.56.048.72 0 .768-.136 1.304-.408 1.608-.272.288-.728.432-1.368.432-.64 0-1.128-.008-1.464-.024a89.03 89.03 0 01-.504 3zm7.601 3.744c0 .752.136 1.368.408 1.848.288.464.688.696 1.2.696.752 0 1.464-.44 2.136-1.32.688-.88 1.232-2.008 1.632-3.384.416-1.376.624-2.68.624-3.912 0-1.248-.048-2.256-.144-3.024.48-.032.816-.048 1.008-.048.816 0 1.432.152 1.848.456.416.304.624.848.624 1.632 0 .304-.192 1.544-.576 3.72-.384 2.16-.576 3.896-.576 5.208 0 1.296.248 2.448.744 3.456-1.2-.208-2.08-.648-2.64-1.32-.56-.688-.84-1.672-.84-2.952 0-.224.032-.656.096-1.296-.432 1.52-1.2 2.744-2.304 3.672-1.104.928-2.192 1.392-3.264 1.392-1.056 0-1.912-.392-2.568-1.176-.64-.8-.96-1.928-.96-3.384s.256-2.864.768-4.224c.528-1.376 1.312-2.536 2.352-3.48 1.04-.96 2.2-1.44 3.48-1.44.736 0 1.488.176 2.256.528-1.616.576-2.904 1.712-3.864 3.408-.96 1.68-1.44 3.328-1.44 4.944z" fill="#000"/><g clip-path="url(#clip0)"><path d="M37.827 23.943V34.16a1.854 1.854 0 01-1.851 1.858c-.338 0-.653-.092-.926-.25v3.967a1.854 1.854 0 01-1.85 1.858 1.854 1.854 0 01-1.852-1.858v-10.22c0-1.026.83-1.857 1.851-1.857.338 0 .653.092.926.25v-3.966c0-1.027.829-1.859 1.85-1.859 1.023 0 1.852.832 1.852 1.859z" fill="#FFC850"/><path d="M10.988 20.227c1.022 0 1.85.831 1.85 1.858v3.966c.273-.158.589-.25.926-.25 1.023 0 1.851.832 1.851 1.858v10.219a1.855 1.855 0 01-1.85 1.858 1.855 1.855 0 01-1.852-1.858V33.91c-.272.158-.588.25-.925.25a1.854 1.854 0 01-1.851-1.858V22.085c0-1.027.829-1.858 1.85-1.858z" fill="#FA9E39"/><path d="M42.573 8.195c.492.495.96 1.005 1.404 1.529a3.775 3.775 0 01.392 4.29L25.249 47.81a.925.925 0 01-1.613 0L4.63 14.216A3.78 3.78 0 015 9.95a25.85 25.85 0 012.048-2.2c9.98-9.548 25.78-9.347 35.525.445z" fill="#FFC850"/><path d="M26.512 45.578L9.268 15.098a6.24 6.24 0 01.61-7.04 42.672 42.672 0 015.706-5.698c9.08-3.436 19.718-1.47 26.989 5.835.492.495.96 1.005 1.404 1.529a3.775 3.775 0 01.392 4.29L26.512 45.579z" fill="#FFDC64"/><path d="M45.046 14.468l-.266.47a.955.955 0 01-1.586.118c-.11-.141-.222-.281-.335-.42-2.439-3.003-5.25-5.28-8.255-6.83a2.77 2.77 0 01-2.33 1.273 2.782 2.782 0 01-2.75-3.165 21.27 21.27 0 00-10.46.144c.162.354.253.748.253 1.163a2.782 2.782 0 01-2.776 2.787 2.778 2.778 0 01-2.619-1.86c-2.573 1.432-4.995 3.407-7.15 5.933-.33.387-.65.783-.959 1.186a.954.954 0 01-1.59-.112l-.27-.479a3.91 3.91 0 01.382-4.41c.654-.79 1.36-1.55 2.118-2.277 10.321-9.873 26.658-9.665 36.736.46.51.513.993 1.04 1.452 1.582a3.904 3.904 0 01.405 4.437z" fill="#EF9F67"/><path d="M8.523 12.206a28.433 28.433 0 00-2.71 3.061.954.954 0 01-1.59-.112l-.27-.479a3.91 3.91 0 01.382-4.41 26.73 26.73 0 011.67-1.836c.54 1.337 1.395 2.604 2.518 3.776z" fill="#DE925F"/><path d="M15.615 14.919a14.462 14.462 0 01-4.091-3.947 3.213 3.213 0 01.399-4.043 3.048 3.048 0 014.322 0l.177.177a.55.55 0 00.78 0l.176-.177a3.048 3.048 0 014.322 0 3.213 3.213 0 01.4 4.043 14.459 14.459 0 01-4.092 3.947l-.9.576a.55.55 0 01-.593 0l-.9-.576zm9.787 18.95a3.048 3.048 0 00-4.322 0l-.177.178a.55.55 0 01-.779 0l-.177-.177a3.048 3.048 0 00-4.322 0 3.213 3.213 0 00-.4 4.043 14.459 14.459 0 004.092 3.947l.9.576a.55.55 0 00.593 0l.9-.577a14.462 14.462 0 004.091-3.946 3.213 3.213 0 00-.399-4.043zm14.266-10.886a3.048 3.048 0 00-4.322 0l-.177.177a.55.55 0 01-.779 0l-.176-.177a3.048 3.048 0 00-4.323 0 3.213 3.213 0 00-.399 4.043 14.458 14.458 0 004.091 3.947l.9.576a.55.55 0 00.593 0l.9-.576a14.462 14.462 0 004.091-3.947 3.213 3.213 0 00-.399-4.043z" fill="#FF507D"/><path d="M15.615 14.919a14.462 14.462 0 01-4.091-3.947 3.213 3.213 0 01.399-4.043 3.05 3.05 0 013.459-.609c-.22.15-.429.322-.624.518a4.552 4.552 0 00-.565 5.727 20.5 20.5 0 002.548 3.012.547.547 0 01-.226-.082l-.9-.576zm2.28 24.587a4.552 4.552 0 01.565-5.727 4.34 4.34 0 01.624-.518 3.05 3.05 0 00-3.46.609 3.213 3.213 0 00-.398 4.043 14.459 14.459 0 004.091 3.947l.9.576c.07.044.148.071.227.082a20.514 20.514 0 01-2.549-3.012zm14.266-10.887a4.552 4.552 0 01.565-5.727 4.34 4.34 0 01.624-.518 3.05 3.05 0 00-3.46.61 3.213 3.213 0 00-.398 4.042 14.458 14.458 0 004.091 3.947l.9.576c.07.045.148.072.227.082a20.502 20.502 0 01-2.549-3.012z" fill="#F13269"/><path d="M23.945 26.73a1.855 1.855 0 01-1.851 1.858 1.855 1.855 0 01-1.851-1.858c0-1.027.828-1.858 1.85-1.858 1.023 0 1.852.831 1.852 1.858zm-7.404-7.432a1.854 1.854 0 00-1.851 1.858c0 1.026.829 1.858 1.85 1.858 1.023 0 1.852-.832 1.852-1.858a1.854 1.854 0 00-1.851-1.858zm17.584-5.574a1.855 1.855 0 00-1.851 1.858c0 1.026.829 1.858 1.85 1.858a1.855 1.855 0 001.852-1.858 1.855 1.855 0 00-1.851-1.858zm-8.33 0a2.782 2.782 0 00-2.776 2.787 2.782 2.782 0 002.777 2.787 2.782 2.782 0 002.776-2.787 2.782 2.782 0 00-2.776-2.787z" fill="#FA9E39"/><path d="M19.378 26.731c0 1.42 1.181 2.576 2.632 2.576 1.452 0 2.632-1.156 2.632-2.576 0-1.42-1.18-2.575-2.632-2.575-1.451 0-2.632 1.155-2.632 2.575zm3.829 0c0 .629-.537 1.14-1.197 1.14s-1.196-.511-1.196-1.14c0-.629.537-1.14 1.196-1.14.66 0 1.197.511 1.197 1.14zm-6.94-8.15c-1.45 0-2.631 1.156-2.631 2.576 0 1.42 1.18 2.576 2.632 2.576 1.45 0 2.632-1.155 2.632-2.576 0-1.42-1.181-2.575-2.632-2.575zm0 3.717c-.66 0-1.196-.512-1.196-1.14 0-.63.537-1.14 1.197-1.14s1.196.51 1.196 1.14c0 .628-.537 1.14-1.196 1.14zm18.186-4.138c1.451 0 2.632-1.156 2.632-2.576 0-1.42-1.18-2.576-2.632-2.576-1.451 0-2.632 1.156-2.632 2.576 0 1.42 1.18 2.576 2.632 2.576zm0-3.716c.66 0 1.196.511 1.196 1.14 0 .629-.536 1.14-1.196 1.14-.66 0-1.197-.511-1.197-1.14 0-.629.537-1.14 1.197-1.14zm-5.025 2.069c0-1.932-1.61-3.505-3.59-3.505-1.978 0-3.588 1.573-3.588 3.505s1.61 3.504 3.589 3.504c1.979 0 3.589-1.572 3.589-3.504zm-5.743 0c0-1.141.966-2.07 2.154-2.07 1.187 0 2.153.929 2.153 2.07 0 1.14-.966 2.069-2.153 2.069-1.188 0-2.154-.928-2.154-2.07zM45.87 9.56a27.858 27.858 0 00-6.68-5.564.718.718 0 00-.736 1.233 26.427 26.427 0 016.336 5.277 3.09 3.09 0 01.339 3.602l-.276.47a.268.268 0 01-.217.13.285.285 0 01-.245-.101 31.041 31.041 0 00-.355-.43c-2.53-3.012-5.479-5.37-8.766-7.01a.718.718 0 00-.917.243 2.17 2.17 0 01-1.813.954c-1.188 0-2.154-.929-2.154-2.07 0-.089.007-.182.02-.278a.718.718 0 00-.55-.798 23.488 23.488 0 00-6.578-.565.718.718 0 00.08 1.433 22.027 22.027 0 015.598.406c.105 1.84 1.672 3.307 3.584 3.307.994 0 1.926-.397 2.598-1.086 2.907 1.537 5.528 3.683 7.8 6.387.113.135.226.272.337.41l.041.045-3.635 6.213c-1.448-.702-3.259-.468-4.465.702l-.085.083-.085-.083c-1.509-1.463-3.963-1.464-5.47 0a3.858 3.858 0 00-.505 4.964l.008.012a15.383 15.383 0 004.437 4.139l.93.576a1.3 1.3 0 00.685.193 1.3 1.3 0 00.684-.193l.93-.576c.28-.174.553-.355.82-.544v3.122c0 .628-.537 1.14-1.197 1.14a1.22 1.22 0 01-.605-.159.718.718 0 00-1.07.626v3.966c0 .629-.537 1.14-1.196 1.14-.66 0-1.197-.511-1.197-1.14v-2.512l1.28-2.187a.718.718 0 10-1.24-.725l-7.685 13.135a.24.24 0 01-.215.117.24.24 0 01-.214-.117l-2.732-4.668.498-.309a15.381 15.381 0 004.437-4.139l.008-.011a3.858 3.858 0 00-.504-4.964c-1.508-1.464-3.962-1.464-5.47 0l-.086.083-.085-.083c-1.509-1.464-3.963-1.464-5.47 0a3.858 3.858 0 00-.505 4.964l.008.011.098.134c-.214.34-.6.553-1.026.553-.66 0-1.196-.511-1.196-1.14v-3.966a.718.718 0 00-1.07-.626 1.22 1.22 0 01-.605.159c-.66 0-1.197-.512-1.197-1.14v-7.473l3.844 6.568a.718.718 0 101.239-.725L5.689 15.77c.016-.018.032-.036.046-.055.315-.397.64-.786.968-1.157a27.437 27.437 0 013.625-3.431c.05.086.102.17.16.254l.008.011a15.384 15.384 0 004.436 4.14l.931.576a1.3 1.3 0 00.684.192 1.3 1.3 0 00.685-.192l.93-.577a15.381 15.381 0 004.437-4.139l.009-.011a3.858 3.858 0 00-.505-4.964c-1.508-1.464-3.962-1.464-5.47 0l-.086.083-.085-.083c-1.508-1.464-3.962-1.464-5.47 0A3.869 3.869 0 009.84 9.69a28.723 28.723 0 00-4.215 3.918c-.343.389-.685.798-1.016 1.214a.28.28 0 01-.242.102.27.27 0 01-.22-.13l-.28-.48a3.102 3.102 0 01.322-3.58c.662-.775 1.38-1.52 2.132-2.216C14.207 1.226 25.714-.638 35.637 3.77a.718.718 0 10.583-1.312A28.668 28.668 0 0020.185.34c-5.598.862-10.729 3.326-14.837 7.126-.794.734-1.55 1.52-2.249 2.336a4.538 4.538 0 00-.47 5.24l.28.479a1.709 1.709 0 001.463.84l3.525 6.025a.72.72 0 00-.004.073v9.847c0 1.42 1.18 2.575 2.632 2.575.08 0 .16-.003.24-.01v3.008c0 1.42 1.18 2.576 2.631 2.576.758 0 1.46-.317 1.95-.847a15.446 15.446 0 003.415 2.863l.931.576c.12.075.252.127.387.159l2.906 4.967c.304.518.848.828 1.455.828.607 0 1.15-.31 1.454-.828l4.97-8.494v.058c0 1.42 1.18 2.576 2.632 2.576 1.451 0 2.632-1.156 2.632-2.576v-3.009c.08.008.16.011.24.011 1.45 0 2.631-1.155 2.631-2.575V29.89a15.3 15.3 0 002.183-2.445l.008-.012a3.855 3.855 0 00-.35-4.805l3.794-6.485a1.708 1.708 0 001.457-.84l.276-.471a4.523 4.523 0 00-.498-5.273zM11.992 7.447a2.51 2.51 0 013.47 0l.183.177a1.306 1.306 0 001.806 0l.182-.177a2.51 2.51 0 013.47 0c.856.83.992 2.14.325 3.116a13.95 13.95 0 01-4.021 3.748l-.86.532-.859-.532a13.954 13.954 0 01-4.02-3.748 2.426 2.426 0 01.324-3.116zm7.525 33.803a13.954 13.954 0 01-4.021-3.748 2.426 2.426 0 01.324-3.116 2.51 2.51 0 013.47 0l.183.177a1.306 1.306 0 001.806 0l.182-.177a2.51 2.51 0 013.47 0c.856.83.992 2.14.325 3.116a13.95 13.95 0 01-4.02 3.748l-.86.532-.86-.532zM40.01 26.616a13.952 13.952 0 01-4.02 3.748l-.86.532-.86-.532a13.956 13.956 0 01-4.02-3.748 2.426 2.426 0 01.324-3.116 2.51 2.51 0 013.47 0l.183.177a1.306 1.306 0 001.806 0l.182-.177a2.51 2.51 0 013.47 0c.856.83.992 2.14.325 3.116z" fill="#000"/></g><defs><clipPath id="clip0"><path fill="#fff" d="M0 0h49v49H0z"/></clipPath></defs></svg>
